<?xml version="1.0" encoding="UTF-8" standalone="no"?>
<!-- Generated by IcoMoon.io -->

<svg
   xmlns:dc="http://purl.org/dc/elements/1.1/"
   xmlns:cc="http://creativecommons.org/ns#"
   xmlns:rdf="http://www.w3.org/1999/02/22-rdf-syntax-ns#"
   xmlns:svg="http://www.w3.org/2000/svg"
   xmlns="http://www.w3.org/2000/svg"
   xmlns:sodipodi="http://sodipodi.sourceforge.net/DTD/sodipodi-0.dtd"
   xmlns:inkscape="http://www.inkscape.org/namespaces/inkscape"
   version="1.1"
   width="512"
   height="512"
   viewBox="0 0 512 512"
   id="svg7"
   sodipodi:docname="search.svg"
   inkscape:version="0.92.1 r15371">
  <metadata
     id="metadata13">
    <rdf:RDF>
      <cc:Work
         rdf:about="">
        <dc:format>image/svg+xml</dc:format>
        <dc:type
           rdf:resource="http://purl.org/dc/dcmitype/StillImage" />
        <dc:title></dc:title>
      </cc:Work>
    </rdf:RDF>
  </metadata>
  <defs
     id="defs11" />
  <sodipodi:namedview
     pagecolor="#ffffff"
     bordercolor="#666666"
     borderopacity="1"
     objecttolerance="10"
     gridtolerance="10"
     guidetolerance="10"
     inkscape:pageopacity="0"
     inkscape:pageshadow="2"
     inkscape:window-width="1366"
     inkscape:window-height="705"
     id="namedview9"
     showgrid="false"
     inkscape:zoom="0.4609375"
     inkscape:cx="256"
     inkscape:cy="256"
     inkscape:window-x="-8"
     inkscape:window-y="-8"
     inkscape:window-maximized="1"
     inkscape:current-layer="svg7" />
  <g
     id="icomoon-ignore" />
  <path
     d="M 16.817293,12.922253 12.706414,9.8630433 C 12.28145,9.5284036 11.82696,9.374771 11.459823,9.3896005 12.430223,8.3950244 13.016402,7.1047213 13.016402,5.6944778 13.016402,2.5494948 10.102592,0 6.5082006,0 2.9138097,0 0,2.5494948 0,5.6944778 c 0,3.1449829 2.9138097,5.6944782 6.5082006,5.6944782 1.6117632,0 3.0864462,-0.512889 4.2231444,-1.361989 -0.01695,0.321234 0.158638,0.718898 0.541096,1.09073 l 3.496362,3.596893 c 0.598652,0.581993 1.576577,0.631049 2.173129,0.109085 0.596551,-0.521964 0.540519,-1.377619 -0.124639,-1.901422 z M 6.5082006,9.4907962 c -2.396238,0 -4.3388004,-1.6996828 -4.3388004,-3.7963184 0,-2.0966357 1.9425624,-3.7963186 4.3388004,-3.7963186 2.3962387,0 4.3388004,1.6996829 4.3388004,3.7963186 0,2.0966356 -1.9425279,3.7963184 -4.3388004,3.7963184 z"
     id="path5"
     inkscape:connector-curvature="0"
     style="stroke-width:0.03170707"
     inkscape:export-xdpi="102"
     inkscape:export-ydpi="102" />
</svg>
